<?xml version="1.0" encoding="utf-8"?>
<!-- Generator: Adobe Illustrator 22.0.1, SVG Export Plug-In . SVG Version: 6.00 Build 0)  -->
<svg version="1.1" xmlns="http://www.w3.org/2000/svg" xmlns:xlink="http://www.w3.org/1999/xlink" x="0px" y="0px"
	 viewBox="0 0 80.1 13.9" style="enable-background:new 0 0 80.1 13.9;" xml:space="preserve">
<style type="text/css">
	.st0{clip-path:url(#SVGID_2_);fill:none;stroke:#FFFFFF;stroke-width:0.736;}
	.st1{clip-path:url(#SVGID_2_);fill:#FFFFFF;}
	.st2{clip-path:url(#SVGID_2_);}
	.st3{fill:#FFFFFF;}
</style>
<g id="Calque_2">
	<rect y="0" width="80.1" height="13.9"/>
</g>
<g id="Calque_1">
	<g>
		<defs>
			<rect id="SVGID_1_" y="0" width="80.1" height="13.9"/>
		</defs>
		<clipPath id="SVGID_2_">
			<use xlink:href="#SVGID_1_"  style="overflow:visible;"/>
		</clipPath>
		<path class="st0" d="M8.3,12.6c3.1,0,5.6-2.5,5.6-5.6c0-3.1-2.5-5.6-5.6-5.6S2.6,3.8,2.6,6.9C2.6,10,5.1,12.6,8.3,12.6z"/>
		<path class="st1" d="M6.8,4.4c-0.2-0.1-0.4,0-0.4,0.2v4.7c0,0.2,0.2,0.3,0.4,0.2l4-2.3C11,7,11,6.8,10.8,6.7L6.8,4.4z"/>
		<g class="st2">
			<path class="st3" d="M22.7,10.8h-1.3l-2.1-6.4h1.2l1.5,4.9l1.5-4.9h1.2L22.7,10.8z"/>
			<path class="st3" d="M25.4,10.8V4.4h1.2v6.4H25.4z"/>
			<path class="st3" d="M32.1,10.1c-0.4,0.4-1.1,0.7-1.8,0.7h-2.5V4.4h2.5c0.7,0,1.4,0.2,1.8,0.7c0.7,0.7,0.7,1.6,0.7,2.5
				S32.8,9.4,32.1,10.1z M31.2,5.8c-0.2-0.2-0.5-0.4-0.9-0.4H29v4.3h1.3c0.4,0,0.7-0.1,0.9-0.4c0.5-0.5,0.5-1.2,0.5-1.8
				S31.7,6.3,31.2,5.8z"/>
			<path class="st3" d="M33.8,10.8V4.4h4.5v1.1h-3.4V7h3v1h-3v1.7h3.4v1.1H33.8z M35.3,3.9l-0.4-0.6l1.7-1.2l0.5,0.8L35.3,3.9z"/>
			<path class="st3" d="M43.3,10.2c-0.5,0.5-1.2,0.7-1.8,0.7c-0.7,0-1.3-0.2-1.8-0.7c-0.7-0.7-0.8-1.5-0.8-2.6s0.1-1.9,0.8-2.6
				c0.5-0.5,1.2-0.7,1.8-0.7c0.7,0,1.4,0.2,1.8,0.7c0.7,0.7,0.8,1.5,0.8,2.6S44,9.5,43.3,10.2z M42.5,5.8c-0.3-0.3-0.6-0.4-1-0.4
				c-0.4,0-0.8,0.2-1,0.4C40,6.2,40,7,40,7.6c0,0.6,0,1.4,0.5,1.8c0.3,0.3,0.6,0.4,1,0.4c0.4,0,0.8-0.2,1-0.4
				c0.4-0.5,0.5-1.2,0.5-1.8C42.9,7,42.9,6.2,42.5,5.8z"/>
			<path class="st3" d="M47.4,5.5v5.3h-1.2V5.5h-1.9V4.4h4.9v1.1H47.4z"/>
			<path class="st3" d="M53.6,10.8V8H51v2.8h-1.2V4.4H51v2.5h2.6V4.4h1.2v6.4H53.6z"/>
			<path class="st3" d="M56.1,10.8V4.4h4.5v1.1h-3.4V7h3v1h-3v1.7h3.4v1.1H56.1z M59,3.9l-1.8-1l0.5-0.8l1.7,1.2L59,3.9z"/>
			<path class="st3" d="M65.6,10.2l0.6,0.7l-0.7,0.5l-0.6-0.7c-0.4,0.2-0.7,0.2-1.1,0.2c-0.7,0-1.3-0.2-1.8-0.7
				c-0.7-0.7-0.8-1.5-0.8-2.6S61.3,5.7,62,5c0.5-0.5,1.2-0.7,1.8-0.7c0.7,0,1.4,0.2,1.8,0.7c0.7,0.7,0.8,1.5,0.8,2.6
				S66.3,9.5,65.6,10.2z M64.8,5.8c-0.3-0.3-0.6-0.4-1-0.4c-0.4,0-0.8,0.2-1,0.4c-0.4,0.5-0.5,1.3-0.5,1.8c0,0.6,0,1.4,0.5,1.8
				c0.3,0.3,0.6,0.4,1,0.4c0.1,0,0.3,0,0.4-0.1l-0.7-0.9l0.7-0.5l0.7,0.9c0.3-0.5,0.3-1.2,0.3-1.7C65.3,7,65.2,6.2,64.8,5.8z"/>
			<path class="st3" d="M69.7,10.9c-1.6,0-2.5-1-2.5-2.6V4.4h1.2v3.9c0,0.9,0.4,1.5,1.3,1.5c0.9,0,1.3-0.6,1.3-1.5V4.4h1.2v3.9
				C72.2,9.9,71.3,10.9,69.7,10.9z"/>
			<path class="st3" d="M73.3,10.8V4.4h4.5v1.1h-3.4V7h3v1h-3v1.7h3.4v1.1H73.3z"/>
		</g>
		<g class="st2">
		</g>
	</g>
</g>
</svg>
